<svg xmlns="http://www.w3.org/2000/svg" style="display: none;">
  <!-- Dashboard Icon -->
  <symbol id="icon-dashboard" viewBox="0 0 24 24" fill="none" stroke="currentColor" stroke-width="2" stroke-linecap="round" stroke-linejoin="round">
    <rect x="3" y="3" width="7" height="9" rx="1" />
    <rect x="14" y="3" width="7" height="5" rx="1" />
    <rect x="14" y="12" width="7" height="9" rx="1" />
    <rect x="3" y="16" width="7" height="5" rx="1" />
  </symbol>

  <!-- Board / Column Icon -->
  <symbol id="icon-board" viewBox="0 0 24 24" fill="none" stroke="currentColor" stroke-width="2" stroke-linecap="round" stroke-linejoin="round">
    <rect x="3" y="3" width="18" height="18" rx="2" />
    <path d="M9 3v18" />
    <path d="M15 3v18" />
  </symbol>

  <!-- Prompts / Code Icon -->
  <symbol id="icon-prompts" viewBox="0 0 24 24" fill="none" stroke="currentColor" stroke-width="2" stroke-linecap="round" stroke-linejoin="round">
    <polyline points="16 18 22 12 16 6" />
    <polyline points="8 6 2 12 8 18" />
  </symbol>

  <!-- DNA / Helix Icon -->
  <symbol id="icon-dna" viewBox="0 0 24 24" fill="none" stroke="currentColor" stroke-width="2" stroke-linecap="round" stroke-linejoin="round">
    <path d="M4.5 10.5C4.5 10.5 7.5 13.5 12 13.5C16.5 13.5 19.5 10.5 19.5 10.5" />
    <path d="M4.5 13.5C4.5 13.5 7.5 10.5 12 10.5C16.5 10.5 19.5 13.5 19.5 13.5" />
    <circle cx="4.5" cy="12" r="1" fill="currentColor" />
    <circle cx="12" cy="12" r="1" fill="currentColor" />
    <circle cx="19.5" cy="12" r="1" fill="currentColor" />
    <path d="M12 4v4" />
    <path d="M12 16v4" />
    <path d="M4.5 4v4" />
    <path d="M4.5 16v4" />
    <path d="M19.5 4v4" />
    <path d="M19.5 16v4" />
  </symbol>

  <!-- Log / Timeline Icon -->
  <symbol id="icon-log" viewBox="0 0 24 24" fill="none" stroke="currentColor" stroke-width="2" stroke-linecap="round" stroke-linejoin="round">
    <line x1="10" y1="6" x2="21" y2="6" />
    <line x1="10" y1="12" x2="21" y2="12" />
    <line x1="10" y1="18" x2="21" y2="18" />
    <polyline points="3 6 4 7 6 5" />
    <polyline points="3 12 4 13 6 11" />
    <polyline points="3 18 4 19 6 17" />
  </symbol>

  <!-- Decisions / Shield Lock Icon -->
  <symbol id="icon-decisions" viewBox="0 0 24 24" fill="none" stroke="currentColor" stroke-width="2" stroke-linecap="round" stroke-linejoin="round">
    <path d="M12 22s8-4 8-10V5l-8-3-8 3v7c0 6 8 10 8 10z" />
    <circle cx="12" cy="11" r="3" />
    <path d="M12 14v4" />
  </symbol>

  <!-- Concept Gallery / Eye Icon -->
  <symbol id="icon-concepts" viewBox="0 0 24 24" fill="none" stroke="currentColor" stroke-width="2" stroke-linecap="round" stroke-linejoin="round">
    <path d="M1 12s4-8 11-8 11 8 11 8-4 8-11 8-11-8-11-8z" />
    <circle cx="12" cy="12" r="3" />
  </symbol>

  <!-- Lock Icon -->
  <symbol id="icon-lock" viewBox="0 0 24 24" fill="none" stroke="currentColor" stroke-width="2" stroke-linecap="round" stroke-linejoin="round">
    <rect x="3" y="11" width="18" height="11" rx="2" ry="2" />
    <path d="M7 11V7a5 5 0 0 1 10 0v4" />
  </symbol>

  <!-- Unlock Icon -->
  <symbol id="icon-unlock" viewBox="0 0 24 24" fill="none" stroke="currentColor" stroke-width="2" stroke-linecap="round" stroke-linejoin="round">
    <rect x="3" y="11" width="18" height="11" rx="2" ry="2" />
    <path d="M7 11V7a5 5 0 0 1 9.9-1" />
  </symbol>

  <!-- Copy Icon -->
  <symbol id="icon-copy" viewBox="0 0 24 24" fill="none" stroke="currentColor" stroke-width="2" stroke-linecap="round" stroke-linejoin="round">
    <rect x="9" y="9" width="13" height="13" rx="2" ry="2" />
    <path d="M5 15H4a2 2 0 0 1-2-2V4a2 2 0 0 1 2-2h9a2 2 0 0 1 2 2v1" />
  </symbol>

  <!-- Checkmark Icon -->
  <symbol id="icon-check" viewBox="0 0 24 24" fill="none" stroke="currentColor" stroke-width="2" stroke-linecap="round" stroke-linejoin="round">
    <polyline points="20 6 9 17 4 12" />
  </symbol>

  <!-- Search Icon -->
  <symbol id="icon-search" viewBox="0 0 24 24" fill="none" stroke="currentColor" stroke-width="2" stroke-linecap="round" stroke-linejoin="round">
    <circle cx="11" cy="11" r="8" />
    <line x1="21" y1="21" x2="16.65" y2="16.65" />
  </symbol>

  <!-- Drag Handle Icon -->
  <symbol id="icon-drag" viewBox="0 0 24 24" fill="none" stroke="currentColor" stroke-width="2" stroke-linecap="round" stroke-linejoin="round">
    <circle cx="9" cy="5" r="1" />
    <circle cx="9" cy="12" r="1" />
    <circle cx="9" cy="19" r="1" />
    <circle cx="15" cy="5" r="1" />
    <circle cx="15" cy="12" r="1" />
    <circle cx="15" cy="19" r="1" />
  </symbol>

  <!-- Clean Placeholder Gecko Silhouette -->
  <symbol id="icon-silhouette" viewBox="0 0 100 100" fill="currentColor">
    <path d="M50,15 C45,15 41,20 41,26 C41,28 41.5,30 42.5,31.5 C36.5,35.5 33,42 33,49 C33,52 34,55.5 35.5,58.5 C32,60 27.5,58.5 25.5,54.5 C24,51.5 25,48 23.5,45 C22.5,43 19.5,42.5 17.5,43.5 C15.5,44.5 15,47.5 16,49.5 C18.5,54.5 19.5,60 24.5,63.5 C27,65 30,65.5 33,65 C33.5,66.5 34,68 35,69.5 C32,71 27.5,70 25,66.5 C23.5,64.5 23.5,61.5 21,60 C19,59 16,60 15,62 C14,64 15,67 17,68.5 C21.5,72 23.5,77 28.5,78 C31.5,78.5 34.5,77.5 37,76 C39.5,79 43,81.5 47,82.5 C46.5,84 45,86 44.5,88 C43.5,90.5 45,93 47.5,93.5 C50,94 52.5,92.5 53,90 C53.5,88 52.5,85.5 52.5,83.5 C56.5,83 60,81 62.5,78 C65,79.5 68,80.5 71,80 C76,79 78,74 82.5,70.5 C84.5,69 85.5,66 84.5,64 C83.5,62 80.5,61 78.5,62 C76,63.5 76,66.5 74.5,68.5 C72,72 67.5,73 64.5,71.5 C65.5,70 66,68.5 66.5,67 C69.5,67.5 72.5,67 75,65.5 C80,62 81,56.5 83.5,51.5 C84.5,49.5 84,46.5 82,45.5 C80,44.5 77,45 76,47 C74.5,50 75.5,53.5 74,56.5 C72,60.5 67.5,62 64,60.5 C65.5,57.5 66.5,54 66.5,51 C66.5,44 63,37.5 57,33.5 C58,32 58.5,30 58.5,28 C58.5,21.5 54.5,15 50,15 Z M50,21 C52,21 53.5,23.5 53.5,26 C53.5,28.5 52,31 50,31 C48,31 46.5,28.5 46.5,26 C46.5,23.5 48,21 50,21 Z" />
  </symbol>
</svg>
